<svg
  viewBox="0 0 1024 1024"
  version="1.1"
  xmlns="http://www.w3.org/2000/svg"
  xmlns:xlink="http://www.w3.org/1999/xlink"
>
  <style>
    rect {
    fill: #000000;
    }

    path {
    fill: #ffffff;
    }

    @media (prefers-color-scheme: dark) {
    rect {
    fill: #ffffff;
    }

    path {
    fill: #000000;
    }
    };
  </style>
  <rect
    x="0"
    y="0"
    width="1024"
    height="1024"
    rx="170"
  />
  <path d="M770.622126,644.123047 C768.952749,644.123047 768.118061,642.930635 768.118061,640.545811 C769.07199,629.575621 770.860608,624.090527 773.483915,624.090527 L934.101801,624.090527 C935.05573,624.090527 935.532695,624.686733 935.532695,625.879144 C935.532695,626.833074 935.353833,628.323589 934.99611,630.350689 C934.638386,632.377789 933.863318,635.656922 932.670906,640.188088 C931.955459,642.811394 930.643806,644.123047 928.735947,644.123047 L770.622126,644.123047 Z" />
  <path d="M706.231882,631.244998 C693.115351,631.244998 681.847058,627.131177 672.427004,618.903535 C663.00695,610.675892 658.296923,597.380499 658.296923,579.017356 L658.296923,496.383209 L635.04489,496.383209 C633.137031,496.383209 632.183101,492.686733 632.183101,485.293779 C632.183101,483.624402 632.421584,482.312749 632.898549,481.358819 C639.576055,478.020066 645.597736,474.740933 650.963589,471.521421 C656.329443,468.301909 661.03947,465.142017 665.093671,462.041746 C675.586896,453.694863 683.218332,447.375079 687.98798,443.082396 C692.757627,438.789714 695.261692,436.524131 695.500175,436.285649 C697.408034,436.285649 699.435134,436.702993 701.581475,437.537681 C703.727817,438.372369 704.800988,439.266678 704.800988,440.220608 L704.800988,475.277518 L743.435134,475.277518 C745.342993,475.277518 746.296923,476.46993 746.296923,478.854754 C746.296923,486.009226 745.104511,491.852044 742.719687,496.383209 L704.800988,496.383209 L704.800988,581.163697 C704.800988,599.288359 711.240012,608.350689 724.118061,608.350689 C730.795568,608.350689 735.505595,607.45638 738.248142,605.667762 C740.99069,603.879144 742.838928,602.984835 743.792858,602.984835 C744.746787,602.984835 745.760337,604.177247 746.833508,606.562071 C747.906679,608.946895 748.443264,610.735513 748.443264,611.927925 C748.443264,613.835784 746.118061,616.339849 741.467654,619.44012 C736.817248,622.540391 731.212912,625.282938 724.654646,627.667762 C718.096381,630.052586 711.955459,631.244998 706.231882,631.244998 Z" />
  <path d="M505.95612,631 C492.830639,631 482.389915,627.365863 474.633949,620.097588 C466.877983,612.829313 463,603.714181 463,592.752193 C463,583.458333 465.923403,575.355994 471.770208,568.445175 C477.617013,561.534357 484.95535,556.053363 493.785219,552.002193 C497.126251,550.572368 500.228637,549.321272 503.092379,548.248904 C505.95612,547.176535 508.581216,546.163743 510.967667,545.210526 C520.036182,542.350877 527.314858,540.265716 532.803695,538.955044 C538.292533,537.644371 542.3495,536.512427 544.974596,535.559211 C547.122402,534.844298 548.196305,533.057018 548.196305,530.197368 L548.196305,517.328947 C548.196305,497.788012 542.230177,488.017544 530.297921,488.017544 C516.456505,488.017544 509.535797,496.000731 509.535797,511.967105 C509.535797,517.209795 507.387991,521.082237 503.092379,523.58443 C498.796767,526.086623 494.023865,527.337719 488.773672,527.337719 C477.795997,527.337719 470.278676,523.763158 466.221709,516.614035 C466.221709,510.418129 468.429176,504.460526 472.844111,498.741228 C477.259045,493.02193 483.105851,487.838816 490.384527,483.191886 C497.663202,478.544956 505.896459,474.851243 515.084296,472.110746 C524.272132,469.370249 533.51963,468 542.82679,468 C559.531948,468 572.359122,472.587354 581.308314,481.762061 C590.257506,490.936769 594.732102,507.55848 594.732102,531.627193 L594.732102,589.535088 C594.732102,597.637427 597.595843,601.688596 603.323326,601.688596 C607.618938,601.688596 611.675905,600.13962 615.494226,597.041667 C617.164742,597.994883 618,599.782164 618,602.403509 C618,608.599415 617.164742,613.008041 615.494226,615.629386 C612.153195,618.727339 606.724018,622.00402 599.206697,625.45943 C591.689376,628.914839 584.589684,630.642544 577.907621,630.642544 C572.180139,630.642544 566.691301,628.914839 561.441109,625.45943 C556.190916,622.00402 552.730562,618.012427 551.060046,613.484649 C550.821401,613.484649 549.508853,614.318713 547.122402,615.986842 C544.735951,617.654971 542.946112,618.965643 541.752887,619.91886 C536.979985,623.016813 531.491147,625.638158 525.286374,627.782895 C519.081601,629.927632 512.638183,631 505.95612,631 Z M528.138889,605 C534.398148,605 539.273148,603.49537 542.763889,600.486111 C546.25463,597.476852 548,593.805556 548,589.472222 L548,553 L529.222222,559.5 C524.166667,561.185185 519.532407,563.712963 515.319444,567.083333 C511.106481,570.453704 509,574.907407 509,580.444444 C509,589.111111 510.865741,595.37037 514.597222,599.222222 C518.328704,603.074074 522.842593,605 528.138889,605 Z" />
  <path d="M252.280662,630.171827 C251.326733,629.217898 250.849768,626.713833 250.849768,622.659632 C250.849768,618.843914 251.326733,616.936055 252.280662,616.936055 C254.188522,616.936055 256.931069,616.39947 260.508305,615.326299 C264.085541,614.253128 267.424294,613.001096 270.524565,611.570201 C273.624836,610.139307 275.294213,608.946895 275.532695,607.992966 C277.202072,601.315459 278.03676,592.253128 278.03676,580.805974 L278.03676,438.789714 C278.03676,433.304619 277.857898,428.41573 277.500175,424.123047 C277.142451,419.830364 276.725107,416.133887 276.248142,413.033616 C275.294213,409.217898 269.093671,407.310039 257.646516,407.310039 L254.427004,407.310039 C252.99611,407.310039 252.280662,404.925215 252.280662,400.155567 C252.280662,396.101367 252.99611,394.074266 254.427004,394.074266 C268.258982,392.881854 281.315893,390.854754 293.597736,387.992966 C305.879578,385.131177 314.643806,382.865594 319.890419,381.196218 L323.467654,380.123047 L324.183101,380.123047 C325.137031,380.123047 326.090961,380.838494 327.04489,382.269388 C327.99882,383.700283 328.595026,385.011936 328.833508,386.204348 C325.971719,396.936055 324.540825,408.979415 324.540825,422.334429 L324.540825,488.871014 C324.540825,490.540391 325.01779,491.375079 325.971719,491.375079 C326.210202,491.375079 326.806408,490.898115 327.760337,489.944185 C333.00695,483.982125 340.399904,479.033616 349.939199,475.098657 C359.478494,471.163697 369.375513,469.196218 379.630256,469.196218 C393.462234,469.196218 404.730527,475.039036 413.435134,486.724673 C422.139741,498.41031 426.492045,516.177247 426.492045,540.025486 L426.492045,575.44012 C426.492045,591.179957 427.326733,602.030906 428.99611,607.992966 C429.473074,608.946895 431.261692,610.139307 434.361963,611.570201 C437.462234,613.001096 440.741367,614.253128 444.199362,615.326299 C447.657356,616.39947 450.101801,616.936055 451.532695,616.936055 C452.00966,616.936055 452.367383,617.889985 452.605866,619.797844 C452.844348,621.705703 452.963589,623.732803 452.963589,625.879144 C452.963589,628.025486 452.725107,629.45638 452.248142,630.171827 C450.817248,630.171827 448.0747,629.992966 444.0205,629.635242 C439.966299,629.277518 435.256272,628.919795 429.890419,628.562071 C424.524565,628.204348 419.456814,627.906245 414.687167,627.667762 C409.917519,627.42928 406.101801,627.310039 403.240012,627.310039 C399.424294,627.310039 394.118061,627.548521 387.321313,628.025486 C380.524565,628.502451 374.02592,628.919795 367.825378,629.277518 C361.624836,629.635242 357.570635,629.933345 355.662776,630.171827 C354.708847,629.217898 354.231882,626.713833 354.231882,622.659632 C354.231882,618.843914 354.708847,616.936055 355.662776,616.936055 C357.570635,616.936055 360.134321,616.39947 363.353833,615.326299 C366.573345,614.253128 369.673616,613.001096 372.654646,611.570201 C375.635676,610.139307 377.245432,608.946895 377.483915,607.992966 C379.153291,601.315459 379.98798,592.253128 379.98798,580.805974 L379.98798,548.610852 C379.98798,530.963155 377.603156,518.383209 372.833508,510.871014 C368.06386,503.358819 360.313183,499.602722 349.581475,499.602722 C332.887709,499.602722 324.540825,504.849334 324.540825,515.342559 L324.540825,575.44012 C324.540825,591.179957 325.375513,602.030906 327.04489,607.992966 C327.521855,608.946895 329.191232,610.139307 332.05302,611.570201 C334.914809,613.001096 338.01508,614.253128 341.353833,615.326299 C344.692587,616.39947 346.958169,616.936055 348.150581,616.936055 C348.627546,616.936055 348.98527,617.889985 349.223752,619.797844 C349.462234,621.705703 349.581475,623.732803 349.581475,625.879144 C349.581475,628.025486 349.342993,629.45638 348.866028,630.171827 C346.958169,629.933345 342.903969,629.635242 336.703427,629.277518 C330.502885,628.919795 324.00424,628.502451 317.207492,628.025486 C310.410744,627.548521 305.104511,627.310039 301.288793,627.310039 C298.427004,627.310039 294.551665,627.42928 289.662776,627.667762 C284.773887,627.906245 279.706137,628.204348 274.459524,628.562071 C269.212912,628.919795 264.562505,629.277518 260.508305,629.635242 C256.454104,629.992966 253.711557,630.171827 252.280662,630.171827 Z" />
  <path d="M170.00424,631.244998 C154.741367,631.244998 141.02863,627.548521 128.866028,620.155567 C116.703427,612.762613 107.04489,602.746353 99.8904186,590.106787 C92.735947,577.46722 89.1587113,563.39676 89.1587113,547.895405 C89.1587113,533.109497 92.9744294,519.754483 100.605866,507.830364 C108.237302,495.906245 118.551665,486.42657 131.548955,479.39134 C144.546245,472.356109 158.914809,468.838494 174.654646,468.838494 C186.817248,468.838494 198.02592,470.925215 208.280662,475.098657 C218.535405,479.272098 225.928359,484.220608 230.459524,489.944185 C230.459524,511.884564 224.0205,522.854754 211.142451,522.854754 C201.841638,522.854754 194.806408,516.892695 190.03676,504.968575 C187.890419,499.48348 185.207492,495.369659 181.98798,492.627112 C178.768467,489.884564 174.296923,488.513291 168.573345,488.513291 C149.494755,488.513291 139.955459,506.39947 139.955459,542.171827 C139.955459,582.47535 153.429714,602.627112 180.378223,602.627112 C188.486625,602.627112 195.99882,601.4347 202.914809,599.049876 C207.684457,597.618982 211.380933,596.307329 214.00424,595.114917 C216.627546,593.922505 219.07199,592.551231 221.337573,591.001096 C223.603156,589.45096 226.286083,587.48348 229.386354,585.098657 C231.532695,586.052586 232.605866,588.318169 232.605866,591.895405 C232.605866,594.995676 232.128901,597.380499 231.174971,599.049876 C229.744077,602.865594 226.0476,607.337139 220.085541,612.46451 C214.123481,617.591882 206.790148,622.003806 198.085541,625.700283 C189.380933,629.39676 180.0205,631.244998 170.00424,631.244998 Z" />
</svg>
